<svg width="24" height="24" viewBox="0 0 24 24" fill="none" xmlns="http://www.w3.org/2000/svg">
<path d="M10.0713 11.1689C9.77095 10.4747 10.4747 9.77097 11.1689 10.0713L22.4971 14.9775C23.2421 15.3005 23.1339 16.3891 22.3398 16.5596L17.582 17.582L16.5596 22.3398C16.389 23.1339 15.2994 23.2422 14.9766 22.4971L10.0713 11.1689Z" fill="#9A9A9A"/>
<path d="M6.40527 13.6758C6.79578 13.2854 7.42883 13.2854 7.81934 13.6758C8.20984 14.0663 8.20978 14.6993 7.81934 15.0898L4.99121 17.9189C4.60082 18.3092 3.96767 18.309 3.57715 17.9189C3.18662 17.5284 3.18662 16.8944 3.57715 16.5039L6.40527 13.6758Z" fill="#9A9A9A"/>
<path d="M5.50488 9.49219C6.05717 9.49219 6.50488 9.9399 6.50488 10.4922C6.50488 11.0445 6.05717 11.4922 5.50488 11.4922H1.50488C0.952598 11.4922 0.504883 11.0445 0.504883 10.4922C0.504883 9.9399 0.952598 9.49219 1.50488 9.49219H5.50488Z" fill="#9A9A9A"/>
<path d="M17.0117 3.07422C17.4022 2.6838 18.0353 2.6838 18.4258 3.07422C18.8163 3.46472 18.8162 4.09775 18.4258 4.48828L15.5977 7.31738C15.2073 7.70766 14.5741 7.70746 14.1836 7.31738C13.7931 6.92686 13.7931 6.29287 14.1836 5.90234L17.0117 3.07422Z" fill="#9A9A9A"/>
<path d="M3.58496 3.06641C3.97549 2.67588 4.60948 2.67588 5 3.06641L7.82812 5.89453C8.21855 6.28504 8.21855 6.91809 7.82812 7.30859C7.43763 7.69909 6.80459 7.69904 6.41406 7.30859L3.58496 4.48047C3.19468 4.09007 3.19489 3.45693 3.58496 3.06641Z" fill="#9A9A9A"/>
<path d="M11 0C11.5523 0 12 0.447715 12 1V5C12 5.55228 11.5523 6 11 6C10.4477 6 10 5.55228 10 5V1C10 0.447715 10.4477 0 11 0Z" fill="#9A9A9A"/>
</svg>
