<svg width="24" height="24" viewBox="0 0 24 24" fill="none" xmlns="http://www.w3.org/2000/svg">
<path d="M5.76 22H18.24C20.2562 22 21.2643 22 22.0344 21.6136C22.7117 21.2737 23.2625 20.7313 23.6076 20.0641C24 19.3057 24 18.3129 24 16.3273V16.3273V9H0V16.3273C0 18.3129 0 19.3057 0.392377 20.0641C0.737521 20.7313 1.28825 21.2737 1.96563 21.6136C2.73572 22 3.74381 22 5.76 22Z" fill="#9A9A9A"/>
<path d="M0 5.73333V9H24V8.06667C24 6.75988 24 6.10648 23.7384 5.60736C23.5083 5.16831 23.1412 4.81136 22.6896 4.58765C22.1762 4.33333 21.5041 4.33333 20.16 4.33333H11.7906C11.2036 4.33333 10.9101 4.33333 10.6338 4.26886C10.389 4.2117 10.1549 4.11743 9.94012 3.98949C9.69792 3.8452 9.49037 3.64342 9.07529 3.23987L8.92471 3.09347C8.50963 2.68991 8.30208 2.48814 8.05988 2.34384C7.84515 2.21591 7.61104 2.12163 7.36616 2.06447C7.08995 2 6.79644 2 6.20942 2H3.84C2.49587 2 1.82381 2 1.31042 2.25432C0.858834 2.47802 0.49168 2.83498 0.261584 3.27402C0 3.77315 0 4.42654 0 5.73333Z" fill="#808080"/>
</svg>
