<svg width="24" height="24" viewBox="0 0 24 24" fill="none" xmlns="http://www.w3.org/2000/svg">
<g clip-path="url(#clip0_3988_6252)">
<path d="M15.4971 2C16.5285 1.99941 17.2806 1.99886 17.9639 2.23926C18.5655 2.45105 19.1137 2.79747 19.5684 3.25195C20.0848 3.7682 20.421 4.45456 20.8818 5.39648L20.9521 5.54004L23.3643 10.4639C23.5466 10.8359 23.6796 11.108 23.7754 11.3984C23.8601 11.6554 23.9222 11.92 23.959 12.1885C24.0006 12.4919 24.0001 12.796 24 13.2119V15.6377C24 16.5455 24.0004 17.2882 23.9521 17.8916C23.9021 18.5162 23.7952 19.0806 23.5322 19.6074C23.1206 20.4319 22.4632 21.1023 21.6553 21.5225C21.1392 21.7908 20.5865 21.9001 19.9746 21.9512C19.3834 22.0005 18.656 22 17.7666 22H6.2334C5.344 22 4.61657 22.0005 4.02539 21.9512C3.41349 21.9001 2.86085 21.7908 2.34473 21.5225C1.53684 21.1023 0.879412 20.4319 0.467773 19.6074C0.204794 19.0806 0.0978515 18.5162 0.0478516 17.8916C-0.000434011 17.2882 -1.15472e-05 16.5455 0 15.6377V13.2119C-9.49703e-05 12.796 -0.00058704 12.4919 0.0410156 12.1885C0.0778423 11.92 0.139908 11.6554 0.224609 11.3984C0.320379 11.108 0.453378 10.8359 0.635742 10.4639L3.11816 5.39648C3.57899 4.45453 3.9152 3.76822 4.43164 3.25195C4.88631 2.79747 5.4345 2.45105 6.03613 2.23926C6.71942 1.99885 7.47153 1.99941 8.50293 2H15.4971ZM8.66016 4.02344C7.40289 4.02344 7.01048 4.0366 6.68164 4.15234C6.35768 4.26639 6.0622 4.45254 5.81738 4.69727C5.56893 4.94568 5.38251 5.29873 4.82031 6.44629L2.59375 10.9902H5.26465C6.394 10.9904 7.42642 11.641 7.93164 12.6719C8.10116 13.0179 8.44809 13.2373 8.82715 13.2373H15.1729C15.5518 13.2372 15.8979 13.0178 16.0674 12.6719C16.5726 11.6408 17.6058 10.9902 18.7354 10.9902H21.4053L19.1797 6.44629C18.6174 5.2985 18.4302 4.94569 18.1816 4.69727C17.9368 4.45258 17.6413 4.26637 17.3174 4.15234C16.9886 4.03673 16.5956 4.02344 15.3389 4.02344H8.66016Z" fill="#9A9A9A"/>
</g>
<defs>
<clipPath id="clip0_3988_6252">
<rect width="24" height="24" fill="white"/>
</clipPath>
</defs>
</svg>
