<svg xmlns="http://www.w3.org/2000/svg" id="globe" viewBox="0 0 64 64"><path d="M32 8C18.75 8 8 18.75 8 32s10.75 24 24 24 24-10.75 24-24S45.25 8 32 8m14.96 14h-4.98c-.47-2.21-1.11-4.27-1.91-6.07 2.78 1.4 5.16 3.49 6.88 6.07ZM36.1 22h-8.21c1.9-8.86 6.31-8.86 8.21 0M14.46 36c-.29-1.29-.46-2.62-.46-4s.17-2.71.46-4h6.7c-.1 1.32-.16 2.66-.16 4s.05 2.68.16 4zm2.57 6h4.98c.47 2.21 1.11 4.27 1.91 6.07-2.78-1.4-5.16-3.49-6.88-6.07Zm4.98-20h-4.98c1.72-2.57 4.1-4.66 6.88-6.07-.8 1.8-1.43 3.86-1.91 6.07Zm5.88 20h8.21c-1.9 8.86-6.31 8.86-8.21 0m8.99-6h-9.76c-.08-1.24-.12-2.57-.12-4s.04-2.76.12-4h9.76c.08 1.24.12 2.57.12 4s-.04 2.76-.12 4m3.2 12.07c.8-1.8 1.43-3.86 1.91-6.07h4.98c-1.72 2.57-4.1 4.66-6.88 6.07ZM42.84 36c.1-1.32.16-2.66.16-4s-.05-2.68-.16-4h6.7c.29 1.29.46 2.62.46 4s-.17 2.71-.46 4z"></path></svg>
